<svg width="512" height="512" viewBox="0 0 512 512" fill="none" xmlns="http://www.w3.org/2000/svg">
  <rect width="512" height="512" rx="64" fill="black"/>
  <!-- Tesoura Cruzada em Dourado -->
  <g transform="translate(256, 256) rotate(45) translate(-128, -128)">
    <path d="M128 64C101.5 64 80 85.5 80 112C80 138.5 101.5 160 128 160C141.2 160 153.2 154.6 161.9 146L240 224.1C248.8 232.9 263.2 232.9 272 224.1C280.8 215.3 280.8 200.9 272 192.1L193.9 114C202.5 105.3 208 93.3 208 80C208 53.5 186.5 32 160 32C133.5 32 112 53.5 112 80C112 106.5 133.5 128 160 128C162.1 128 164.2 127.9 166.2 127.6L144 149.8C139.1 154.7 131.2 154.7 126.3 149.8C121.4 144.9 121.4 137 126.3 132.1L148.5 109.9C148.2 107.9 148.1 105.8 148.1 103.7C148.1 77.2 169.6 55.7 196.1 55.7C222.6 55.7 244.1 77.2 244.1 103.7C244.1 116.9 238.7 128.9 230.1 137.6L152 215.7C143.2 224.5 128.8 224.5 120 215.7C111.2 206.9 111.2 192.5 120 183.7L198.1 105.6C196.1 103.6 193.3 102.3 190.2 102.3C184 102.3 178.9 107.4 178.9 113.6C178.9 119.8 184 124.9 190.2 124.9C191.6 124.9 192.9 124.7 194.1 124.2L171.9 146.4C167 151.3 159.1 151.3 154.2 146.4C149.3 141.5 149.3 133.6 154.2 128.7L176.4 106.5C175.9 104.5 175.8 102.4 175.8 100.3C175.8 73.8 197.3 52.3 223.8 52.3C250.3 52.3 271.8 73.8 271.8 100.3C271.8 113.5 266.4 125.5 257.8 134.2L179.7 212.3C170.9 221.1 156.5 221.1 147.7 212.3C138.9 203.5 138.9 189.1 147.7 180.3L225.8 102.2C223.8 100.2 221 98.9 217.9 98.9C211.7 98.9 206.6 104 206.6 110.2C206.6 116.4 211.7 121.5 217.9 121.5C219.1 121.5 220.3 121.3 221.4 120.9L199.2 143.1C194.3 148 186.4 148 181.5 143.1C176.6 138.2 176.6 130.3 181.5 125.4L203.7 103.2C203.2 101.2 203.1 99.1 203.1 97C203.1 70.5 224.6 49 251.1 49C277.6 49 299.1 70.5 299.1 97C299.1 110.2 293.7 122.2 285.1 130.9L207 209C198.2 217.8 183.8 217.8 175 209C166.2 200.2 166.2 185.8 175 177L253.1 98.9C251.1 96.9 248.3 95.6 245.2 95.6C239 95.6 233.9 100.7 233.9 106.9C233.9 113.1 239 118.2 245.2 118.2C246.4 118.2 247.6 118 248.7 117.6L226.5 139.8C221.6 144.7 213.7 144.7 208.8 139.8C203.9 134.9 203.9 127 208.8 122.1L231 99.9C230.5 97.9 230.4 95.8 230.4 93.7C230.4 67.2 251.9 45.7 278.4 45.7C304.9 45.7 326.4 67.2 326.4 93.7C326.4 106.9 321 118.9 312.4 127.6L234.3 205.7C225.5 214.5 211.1 214.5 202.3 205.7C193.5 196.9 193.5 182.5 202.3 173.7L280.4 95.6C278.4 93.6 275.6 92.3 272.5 92.3C266.3 92.3 261.2 97.4 261.2 103.6C261.2 109.8 266.3 114.9 272.5 114.9C273.7 114.9 274.9 114.7 276 114.3L253.8 136.5C248.9 141.4 241 141.4 236.1 136.5C231.2 131.6 231.2 123.7 236.1 118.8L258.3 96.6C257.8 94.6 257.7 92.5 257.7 90.4C257.7 63.9 279.2 42.4 305.7 42.4C332.2 42.4 353.7 63.9 353.7 90.4C353.7 103.6 348.3 115.6 339.7 124.3L261.6 202.4C252.8 211.2 238.4 211.2 229.6 202.4C220.8 193.6 220.8 179.2 229.6 170.4L307.7 92.3C305.7 90.3 302.9 89 299.8 89C293.6 89 288.5 94.1 288.5 100.3C288.5 106.5 293.6 111.6 299.8 111.6C301 111.6 302.2 111.4 303.3 111L281.1 133.2C276.2 138.1 268.3 138.1 263.4 133.2C258.5 128.3 258.5 120.4 263.4 115.5L285.6 93.3C285.1 91.3 285 89.2 285 87.1C285 60.6 306.5 39.1 333 39.1C359.5 39.1 381 60.6 381 87.1C381 100.3 375.6 112.3 367 121L288.9 199.1C280.1 207.9 265.7 207.9 256.9 199.1C248.1 190.3 248.1 175.9 256.9 167.1L335 89C333 87 330.2 85.7 327.1 85.7C320.9 85.7 315.8 90.8 315.8 97C315.8 103.2 320.9 108.3 327.1 108.3C328.3 108.3 329.5 108.1 330.6 107.7L308.4 129.9C303.5 134.8 295.6 134.8 290.7 129.9C285.8 125 285.8 117.1 290.7 112.2L312.9 90C312.4 88 312.3 85.9 312.3 83.8C312.3 57.3 333.8 35.8 360.3 35.8C386.8 35.8 408.3 57.3 408.3 83.8C408.3 97 402.9 109 394.3 117.7L316.2 195.8C307.4 204.6 293 204.6 284.2 195.8C275.4 187 275.4 172.6 284.2 163.8L362.3 85.7C360.3 83.7 357.5 82.4 354.4 82.4C348.2 82.4 343.1 87.5 343.1 93.7C343.1 99.9 348.2 105 354.4 105C355.6 105 356.8 104.8 357.9 104.4L335.7 126.6C330.8 131.5 322.9 131.5 318 126.6C313.1 121.7 313.1 113.8 318 108.9L340.2 86.7C339.7 84.7 339.6 82.6 339.6 80.5C339.6 54 361.1 32.5 387.6 32.5C414.1 32.5 435.6 54 435.6 80.5C435.6 93.7 430.2 105.7 421.6 114.4L343.5 192.5C334.7 201.3 320.3 201.3 311.5 192.5C302.7 183.7 302.7 169.3 311.5 160.5L389.6 82.4C387.6 80.4 384.8 79.1 381.7 79.1C375.5 79.1 370.4 84.2 370.4 90.4C370.4 96.6 375.5 101.7 381.7 101.7C382.9 101.7 384.1 101.5 385.2 101.1L363 123.3C358.1 128.2 350.2 128.2 345.3 123.3C340.4 118.4 340.4 110.5 345.3 105.6L367.5 83.4C367 81.4 366.9 79.3 366.9 77.2C366.9 50.7 388.4 29.2 414.9 29.2C441.4 29.2 462.9 50.7 462.9 77.2C462.9 90.4 457.5 102.4 448.9 111.1L370.8 189.2C362 198 347.6 198 338.8 189.2C330 180.4 330 166 338.8 157.2L416.9 79.1C414.9 77.1 412.1 75.8 409 75.8C402.8 75.8 397.7 80.9 397.7 87.1C397.7 93.3 402.8 98.4 409 98.4C410.2 98.4 411.4 98.2 412.5 97.8L390.3 120C385.4 124.9 377.5 124.9 372.6 120C367.7 115.1 367.7 107.2 372.6 102.3L394.8 80.1C394.3 78.1 394.2 76 394.2 73.9C394.2 47.4 415.7 25.9 442.2 25.9C468.7 25.9 490.2 47.4 490.2 73.9C490.2 87.1 484.8 99.1 476.2 107.8L398.1 185.9C389.3 194.7 374.9 194.7 366.1 185.9C357.3 177.1 357.3 162.7 366.1 153.9L444.2 75.8C442.2 73.8 439.4 72.5 436.3 72.5C430.1 72.5 425 77.6 425 83.8C425 90 430.1 95.1 436.3 95.1C437.5 95.1 438.7 94.9 439.8 94.5L417.6 116.7C412.7 121.6 404.8 121.6 399.9 116.7C395 111.8 395 103.9 399.9 99L422.1 76.8C421.6 74.8 421.5 72.7 421.5 70.6C421.5 44.1 443 22.6 469.5 22.6C496 22.6 517.5 44.1 517.5 70.6C517.5 83.8 512.1 95.8 503.5 104.5L425.4 182.6C416.6 191.4 402.2 191.4 393.4 182.6C384.6 173.8 384.6 159.4 393.4 150.6L471.5 72.5C469.5 70.5 466.7 69.2 463.6 69.2C457.4 69.2 452.3 74.3 452.3 80.5C452.3 86.7 457.4 91.8 463.6 91.8C464.8 91.8 466 91.6 467.1 91.2L444.9 113.4C440 118.3 432.1 118.3 427.2 113.4C422.3 108.5 422.3 100.6 427.2 95.7L449.4 73.5C448.9 71.5 448.8 69.4 448.8 67.3C448.8 40.8 470.3 19.3 496.8 19.3C523.3 19.3 544.8 40.8 544.8 67.3C544.8 80.5 539.4 92.5 530.8 101.2L452.7 179.3C443.9 188.1 429.5 188.1 420.7 179.3C411.9 170.5 411.9 156.1 420.7 147.3L498.8 69.2C496.8 67.2 494 65.9 490.9 65.9C484.7 65.9 479.6 71 479.6 77.2C479.6 83.4 484.7 88.5 490.9 88.5C492.1 88.5 493.3 88.3 494.4 87.9L472.2 110.1C467.3 115 459.4 115 454.5 110.1C449.6 105.2 449.6 97.3 454.5 92.4L476.7 70.2C476.2 68.2 476.1 66.1 476.1 64C476.1 37.5 497.6 16 524.1 16C550.6 16 572.1 37.5 572.1 64C572.1 77.2 566.7 89.2 558.1 97.9L480 176C471.2 184.8 456.8 184.8 448 176C439.2 167.2 439.2 152.8 448 144L526.1 65.9C524.1 63.9 521.3 62.6 518.2 62.6C512 62.6 506.9 67.7 506.9 73.9C506.9 80.1 512 85.2 518.2 85.2C519.4 85.2 520.6 85 521.7 84.6L499.5 106.8C494.6 111.7 486.7 111.7 481.8 106.8C476.9 101.9 476.9 94 481.8 89.1L504 66.9C503.5 64.9 503.4 62.8 503.4 60.7C503.4 34.2 524.9 12.7 551.4 12.7C577.9 12.7 599.4 34.2 599.4 60.7C599.4 73.9 594 85.9 585.4 94.6L507.3 172.7C498.5 181.5 484.1 181.5 475.3 172.7C466.5 163.9 466.5 149.5 475.3 140.7L553.4 62.6C551.4 60.6 548.6 59.3 545.5 59.3C539.3 59.3 534.2 64.4 534.2 70.6C534.2 76.8 539.3 81.9 545.5 81.9C546.7 81.9 547.9 81.7 549 81.3L526.8 103.5C521.9 108.4 514 108.4 509.1 103.5C504.2 98.6 504.2 90.7 509.1 85.8L531.3 63.6C530.8 61.6 530.7 59.5 530.7 57.4C530.7 30.9 552.2 9.4 578.7 9.4C605.2 9.4 626.7 30.9 626.7 57.4C626.7 70.6 621.3 82.6 612.7 91.3L534.6 169.4C525.8 178.2 511.4 178.2 502.6 169.4C493.8 160.6 493.8 146.2 502.6 137.4L580.7 59.3C578.7 57.3 575.9 56 572.8 56C566.6 56 561.5 61.1 561.5 67.3C561.5 73.5 566.6 78.6 572.8 78.6C574 78.6 575.2 78.4 576.3 78L554.1 100.2C549.2 105.1 541.3 105.1 536.4 100.2C531.5 95.3 531.5 87.4 536.4 82.5L558.6 60.3C558.1 58.3 558 56.2 558 54.1C558 27.6 579.5 6.1 606 6.1C632.5 6.1 654 27.6 654 54.1C654 67.3 648.6 79.3 640 88L561.9 166.1C553.1 174.9 538.7 174.9 529.9 166.1C521.1 157.3 521.1 142.9 529.9 134.1L608 56" stroke="#D4AF37" stroke-width="12" stroke-linecap="round"/>
  </g>
  
  <!-- Cifrão Estilizado em Dourado -->
  <path d="M256 120V392M210 160H270C300 160 320 180 320 210C320 240 300 260 270 260H242C212 260 192 280 192 310C192 340 212 360 242 360H302M256 100V120M256 392V412" stroke="#FFD700" stroke-width="24" stroke-linecap="round" stroke-linejoin="round"/>
  <path d="M256 120V392M210 160H270C300 160 320 180 320 210C320 240 300 260 270 260H242C212 260 192 280 192 310C192 340 212 360 242 360H302" stroke="#D4AF37" stroke-width="12" stroke-linecap="round" stroke-linejoin="round"/>
</svg>
